<svg width="46" height="37" viewBox="0 0 46 37" fill="none" xmlns="http://www.w3.org/2000/svg">
<path d="M16.7195 27.2851C16.2519 27.3008 15.2418 26.9828 14.9425 25.5848C14.6432 24.1869 12.0743 10.2668 10.8272 3.48156L6.89906 3.43433C6.44701 3.35562 5.5429 2.87703 5.5429 1.59239C5.5429 0.737192 6.44901 0.110769 6.96591 0.0810598C6.99139 0.0795955 7.01592 0.0795808 7.03935 0.0810598H12.464C13.5863 0.184964 14.0072 1.20512 14.0072 2.30083H43.4686C44.2636 2.30083 45.76 2.97149 45.76 4.52061C45.76 5.41796 45.0773 7.46771 44.778 8.67678L42.1124 18.3588C41.8318 19.1144 41.411 20.3896 39.4001 20.3896H17.4677L18.1692 23.8374H39.7742C41.9254 23.8374 42.0657 27.2851 39.5872 27.2851H16.7195Z" fill="#FF3B3B"/>
<path d="M17.7951 29.5049C15.513 29.5049 14.5216 31.583 14.5216 32.6692C14.5216 37.4394 21.2556 37.4866 21.2556 32.6692C21.2556 32.0552 20.6009 29.5049 17.7951 29.5049Z" fill="#FF3B3B"/>
<path d="M37.9972 29.5049C35.7151 29.5049 34.7237 31.583 34.7237 32.6692C34.7237 37.4394 41.4577 37.4866 41.4577 32.6692C41.4577 32.0552 40.803 29.5049 37.9972 29.5049Z" fill="#FF3B3B"/>
<path d="M8.34875 10.2353H2.55C2.08236 10.2353 1.05355 9.81028 1.05355 8.44063C1.05355 7.34491 2.11354 6.91355 2.64353 6.83484H8.25522C8.81639 6.83484 9.98549 7.16544 9.98549 8.58232C9.98549 9.9992 8.89433 10.1724 8.34875 10.2353Z" fill="#FF3B3B"/>
<path d="M9.47109 15.8556H2.55C2.08236 15.8556 1.05355 15.4306 1.05355 14.0609C1.05355 12.9652 2.11354 12.5338 2.64353 12.4551H9.37756C9.93873 12.4551 11.1078 12.7857 11.1078 14.2026C11.1078 15.6195 10.0167 15.7927 9.47109 15.8556Z" fill="#FF3B3B"/>
<path d="M10.5467 21.5704H2.45647C1.98883 21.5704 0.960022 21.1453 0.960022 19.7756C0.960022 18.6799 2.02001 18.2486 2.55 18.1699H10.4531C11.0143 18.1699 12.1834 18.5005 12.1834 19.9173C12.1834 21.3342 11.0922 21.5074 10.5467 21.5704Z" fill="#FF3B3B"/>
</svg>
