<svg width="39" height="39" viewBox="0 0 39 39" fill="none" xmlns="http://www.w3.org/2000/svg">
<path d="M14.7213 7.76745H24.2937C24.9022 6.80074 26.3858 4.47409 27.4516 2.90113C28.5174 1.32818 27.2378 0.738324 26.4647 0.640015H12.2542C10.7147 0.640015 10.9548 1.98358 11.2673 2.65536L14.7213 7.76745Z" fill="#FF8801"/>
<path fill-rule="evenodd" clip-rule="evenodd" d="M14.7213 10.176H24.2937C24.5006 10.3122 24.7644 10.4751 25.0747 10.6667C28.6848 12.8964 38.5834 19.0097 38.3562 32.0007C38.3562 36.4247 35.7904 38.44 31.4483 38.44H7.56666C5.23112 38.44 0.560059 37.162 0.560059 32.0007C0.560059 25.5615 2.13901 17.3035 14.7213 10.176ZM23.5535 19.4663C23.7114 18.1293 21.8759 17.6967 20.9384 17.6476C20.9384 15.1755 17.8162 15.1997 17.8792 17.6476C16.2015 17.795 14.2279 19.2697 14.4252 22.0715C14.5831 24.3129 17.8792 25.4632 19.5075 25.7581C19.9516 25.8564 22.2988 26.4954 21.2838 27.6751C20.5733 28.5009 18.1588 27.9209 17.0404 27.5277C16.9491 27.5082 16.847 27.4801 16.7372 27.45C16.0152 27.2517 14.9599 26.9619 14.4746 28.4124C13.9647 29.9362 16.6127 30.6736 17.9779 30.9193C17.945 31.5584 18.195 32.8364 19.4581 32.8364C20.7213 32.8364 21.0042 31.5584 20.9877 30.9193C24.0667 30.3688 24.5733 27.7407 24.4417 26.4954C24.0904 24.1623 22.2879 23.5826 20.0356 22.8582C19.4407 22.6669 18.8144 22.4654 18.1752 22.219C16.4483 21.553 17.8792 19.7344 20.2476 20.4494C21.8759 20.9409 23.3562 21.1375 23.5535 19.4663Z" fill="#FF8801"/>
</svg>
