<svg width="225" height="294" viewBox="0 0 225 294" fill="none" xmlns="http://www.w3.org/2000/svg">
<path d="M14.8864 7.44318C14.8864 11.5539 11.5539 14.8864 7.44318 14.8864C3.33243 14.8864 0 11.5539 0 7.44318C0 3.33243 3.33243 0 7.44318 0C11.5539 0 14.8864 3.33243 14.8864 7.44318Z" fill="#FCE6BF"/>
<path d="M14.8864 42.3295C14.8864 46.4403 11.5539 49.7727 7.44318 49.7727C3.33243 49.7727 0 46.4403 0 42.3295C0 38.2188 3.33243 34.8864 7.44318 34.8864C11.5539 34.8864 14.8864 38.2188 14.8864 42.3295Z" fill="#FCE6BF"/>
<path d="M14.8864 77.2159C14.8864 81.3266 11.5539 84.6591 7.44318 84.6591C3.33243 84.6591 0 81.3266 0 77.2159C0 73.1051 3.33243 69.7727 7.44318 69.7727C11.5539 69.7727 14.8864 73.1051 14.8864 77.2159Z" fill="#FCE6BF"/>
<path d="M14.8864 112.102C14.8864 116.213 11.5539 119.545 7.44318 119.545C3.33243 119.545 0 116.213 0 112.102C0 107.991 3.33243 104.659 7.44318 104.659C11.5539 104.659 14.8864 107.991 14.8864 112.102Z" fill="#FCE6BF"/>
<path d="M14.8864 181.739C14.8864 185.849 11.5539 189.182 7.44318 189.182C3.33243 189.182 0 185.849 0 181.739C0 177.628 3.33243 174.295 7.44318 174.295C11.5539 174.295 14.8864 177.628 14.8864 181.739Z" fill="#FCE6BF"/>
<path d="M14.8864 251.375C14.8864 255.486 11.5539 258.818 7.44318 258.818C3.33243 258.818 0 255.486 0 251.375C0 247.264 3.33243 243.932 7.44318 243.932C11.5539 243.932 14.8864 247.264 14.8864 251.375Z" fill="#FCE6BF"/>
<path d="M14.8864 146.989C14.8864 151.099 11.5539 154.432 7.44318 154.432C3.33243 154.432 0 151.099 0 146.989C0 142.878 3.33243 139.545 7.44318 139.545C11.5539 139.545 14.8864 142.878 14.8864 146.989Z" fill="#FCE6BF"/>
<path d="M14.8864 216.625C14.8864 220.736 11.5539 224.068 7.44318 224.068C3.33243 224.068 0 220.736 0 216.625C0 212.514 3.33243 209.182 7.44318 209.182C11.5539 209.182 14.8864 212.514 14.8864 216.625Z" fill="#FCE6BF"/>
<path d="M14.8864 286.261C14.8864 290.372 11.5539 293.704 7.44318 293.704C3.33243 293.704 0 290.372 0 286.261C0 282.151 3.33243 278.818 7.44318 278.818C11.5539 278.818 14.8864 282.151 14.8864 286.261Z" fill="#FCE6BF"/>
<path d="M49.7727 7.44318C49.7727 11.5539 46.4403 14.8864 42.3295 14.8864C38.2188 14.8864 34.8864 11.5539 34.8864 7.44318C34.8864 3.33243 38.2188 0 42.3295 0C46.4403 0 49.7727 3.33243 49.7727 7.44318Z" fill="#FCE6BF"/>
<path d="M49.7727 42.3295C49.7727 46.4403 46.4403 49.7727 42.3295 49.7727C38.2188 49.7727 34.8864 46.4403 34.8864 42.3295C34.8864 38.2188 38.2188 34.8864 42.3295 34.8864C46.4403 34.8864 49.7727 38.2188 49.7727 42.3295Z" fill="#FCE6BF"/>
<path d="M49.7727 77.2159C49.7727 81.3266 46.4403 84.6591 42.3295 84.6591C38.2188 84.6591 34.8864 81.3266 34.8864 77.2159C34.8864 73.1051 38.2188 69.7727 42.3295 69.7727C46.4403 69.7727 49.7727 73.1051 49.7727 77.2159Z" fill="#FCE6BF"/>
<path d="M49.7727 112.102C49.7727 116.213 46.4403 119.545 42.3295 119.545C38.2188 119.545 34.8864 116.213 34.8864 112.102C34.8864 107.991 38.2188 104.659 42.3295 104.659C46.4403 104.659 49.7727 107.991 49.7727 112.102Z" fill="#FCE6BF"/>
<path d="M49.7727 181.739C49.7727 185.849 46.4403 189.182 42.3295 189.182C38.2188 189.182 34.8864 185.849 34.8864 181.739C34.8864 177.628 38.2188 174.295 42.3295 174.295C46.4403 174.295 49.7727 177.628 49.7727 181.739Z" fill="#FCE6BF"/>
<path d="M49.7727 251.375C49.7727 255.486 46.4403 258.818 42.3295 258.818C38.2188 258.818 34.8864 255.486 34.8864 251.375C34.8864 247.264 38.2188 243.932 42.3295 243.932C46.4403 243.932 49.7727 247.264 49.7727 251.375Z" fill="#FCE6BF"/>
<path d="M49.7727 146.989C49.7727 151.099 46.4403 154.432 42.3295 154.432C38.2188 154.432 34.8864 151.099 34.8864 146.989C34.8864 142.878 38.2188 139.545 42.3295 139.545C46.4403 139.545 49.7727 142.878 49.7727 146.989Z" fill="#FCE6BF"/>
<path d="M49.7727 216.625C49.7727 220.736 46.4403 224.068 42.3295 224.068C38.2188 224.068 34.8864 220.736 34.8864 216.625C34.8864 212.514 38.2188 209.182 42.3295 209.182C46.4403 209.182 49.7727 212.514 49.7727 216.625Z" fill="#FCE6BF"/>
<path d="M49.7727 286.261C49.7727 290.372 46.4403 293.704 42.3295 293.704C38.2188 293.704 34.8864 290.372 34.8864 286.261C34.8864 282.151 38.2188 278.818 42.3295 278.818C46.4403 278.818 49.7727 282.151 49.7727 286.261Z" fill="#FCE6BF"/>
<path d="M84.6591 7.44318C84.6591 11.5539 81.3266 14.8864 77.2159 14.8864C73.1051 14.8864 69.7727 11.5539 69.7727 7.44318C69.7727 3.33243 73.1051 0 77.2159 0C81.3266 0 84.6591 3.33243 84.6591 7.44318Z" fill="#FCE6BF"/>
<path d="M84.6591 42.3295C84.6591 46.4403 81.3266 49.7727 77.2159 49.7727C73.1051 49.7727 69.7727 46.4403 69.7727 42.3295C69.7727 38.2188 73.1051 34.8864 77.2159 34.8864C81.3266 34.8864 84.6591 38.2188 84.6591 42.3295Z" fill="#FCE6BF"/>
<path d="M84.6591 77.2159C84.6591 81.3266 81.3266 84.6591 77.2159 84.6591C73.1051 84.6591 69.7727 81.3266 69.7727 77.2159C69.7727 73.1051 73.1051 69.7727 77.2159 69.7727C81.3266 69.7727 84.6591 73.1051 84.6591 77.2159Z" fill="#FCE6BF"/>
<path d="M84.6591 112.102C84.6591 116.213 81.3266 119.545 77.2159 119.545C73.1051 119.545 69.7727 116.213 69.7727 112.102C69.7727 107.991 73.1051 104.659 77.2159 104.659C81.3266 104.659 84.6591 107.991 84.6591 112.102Z" fill="#FCE6BF"/>
<path d="M84.6591 181.739C84.6591 185.849 81.3266 189.182 77.2159 189.182C73.1051 189.182 69.7727 185.849 69.7727 181.739C69.7727 177.628 73.1051 174.295 77.2159 174.295C81.3266 174.295 84.6591 177.628 84.6591 181.739Z" fill="#FCE6BF"/>
<path d="M84.6591 251.375C84.6591 255.486 81.3266 258.818 77.2159 258.818C73.1051 258.818 69.7727 255.486 69.7727 251.375C69.7727 247.264 73.1051 243.932 77.2159 243.932C81.3266 243.932 84.6591 247.264 84.6591 251.375Z" fill="#FCE6BF"/>
<path d="M84.6591 146.989C84.6591 151.099 81.3266 154.432 77.2159 154.432C73.1051 154.432 69.7727 151.099 69.7727 146.989C69.7727 142.878 73.1051 139.545 77.2159 139.545C81.3266 139.545 84.6591 142.878 84.6591 146.989Z" fill="#FCE6BF"/>
<path d="M84.6591 216.625C84.6591 220.736 81.3266 224.068 77.2159 224.068C73.1051 224.068 69.7727 220.736 69.7727 216.625C69.7727 212.514 73.1051 209.182 77.2159 209.182C81.3266 209.182 84.6591 212.514 84.6591 216.625Z" fill="#FCE6BF"/>
<path d="M84.6591 286.261C84.6591 290.372 81.3266 293.704 77.2159 293.704C73.1051 293.704 69.7727 290.372 69.7727 286.261C69.7727 282.151 73.1051 278.818 77.2159 278.818C81.3266 278.818 84.6591 282.151 84.6591 286.261Z" fill="#FCE6BF"/>
<path d="M119.545 7.44318C119.545 11.5539 116.213 14.8864 112.102 14.8864C107.991 14.8864 104.659 11.5539 104.659 7.44318C104.659 3.33243 107.991 0 112.102 0C116.213 0 119.545 3.33243 119.545 7.44318Z" fill="#FCE6BF"/>
<path d="M119.545 42.3295C119.545 46.4403 116.213 49.7727 112.102 49.7727C107.991 49.7727 104.659 46.4403 104.659 42.3295C104.659 38.2188 107.991 34.8864 112.102 34.8864C116.213 34.8864 119.545 38.2188 119.545 42.3295Z" fill="#FCE6BF"/>
<path d="M119.545 77.2159C119.545 81.3266 116.213 84.6591 112.102 84.6591C107.991 84.6591 104.659 81.3266 104.659 77.2159C104.659 73.1051 107.991 69.7727 112.102 69.7727C116.213 69.7727 119.545 73.1051 119.545 77.2159Z" fill="#FCE6BF"/>
<path d="M119.545 112.102C119.545 116.213 116.213 119.545 112.102 119.545C107.991 119.545 104.659 116.213 104.659 112.102C104.659 107.991 107.991 104.659 112.102 104.659C116.213 104.659 119.545 107.991 119.545 112.102Z" fill="#FCE6BF"/>
<path d="M119.545 181.739C119.545 185.849 116.213 189.182 112.102 189.182C107.991 189.182 104.659 185.849 104.659 181.739C104.659 177.628 107.991 174.295 112.102 174.295C116.213 174.295 119.545 177.628 119.545 181.739Z" fill="#FCE6BF"/>
<path d="M119.545 251.375C119.545 255.486 116.213 258.818 112.102 258.818C107.991 258.818 104.659 255.486 104.659 251.375C104.659 247.264 107.991 243.932 112.102 243.932C116.213 243.932 119.545 247.264 119.545 251.375Z" fill="#FCE6BF"/>
<path d="M119.545 146.989C119.545 151.099 116.213 154.432 112.102 154.432C107.991 154.432 104.659 151.099 104.659 146.989C104.659 142.878 107.991 139.545 112.102 139.545C116.213 139.545 119.545 142.878 119.545 146.989Z" fill="#FCE6BF"/>
<path d="M119.545 216.625C119.545 220.736 116.213 224.068 112.102 224.068C107.991 224.068 104.659 220.736 104.659 216.625C104.659 212.514 107.991 209.182 112.102 209.182C116.213 209.182 119.545 212.514 119.545 216.625Z" fill="#FCE6BF"/>
<path d="M119.545 286.261C119.545 290.372 116.213 293.704 112.102 293.704C107.991 293.704 104.659 290.372 104.659 286.261C104.659 282.151 107.991 278.818 112.102 278.818C116.213 278.818 119.545 282.151 119.545 286.261Z" fill="#FCE6BF"/>
<path d="M154.432 7.44318C154.432 11.5539 151.099 14.8864 146.989 14.8864C142.878 14.8864 139.545 11.5539 139.545 7.44318C139.545 3.33243 142.878 0 146.989 0C151.099 0 154.432 3.33243 154.432 7.44318Z" fill="#FCE6BF"/>
<path d="M154.432 42.3295C154.432 46.4403 151.099 49.7727 146.989 49.7727C142.878 49.7727 139.545 46.4403 139.545 42.3295C139.545 38.2188 142.878 34.8864 146.989 34.8864C151.099 34.8864 154.432 38.2188 154.432 42.3295Z" fill="#FCE6BF"/>
<path d="M154.432 77.2159C154.432 81.3266 151.099 84.6591 146.989 84.6591C142.878 84.6591 139.545 81.3266 139.545 77.2159C139.545 73.1051 142.878 69.7727 146.989 69.7727C151.099 69.7727 154.432 73.1051 154.432 77.2159Z" fill="#FCE6BF"/>
<path d="M154.432 112.102C154.432 116.213 151.099 119.545 146.989 119.545C142.878 119.545 139.545 116.213 139.545 112.102C139.545 107.991 142.878 104.659 146.989 104.659C151.099 104.659 154.432 107.991 154.432 112.102Z" fill="#FCE6BF"/>
<path d="M154.432 181.739C154.432 185.849 151.099 189.182 146.989 189.182C142.878 189.182 139.545 185.849 139.545 181.739C139.545 177.628 142.878 174.295 146.989 174.295C151.099 174.295 154.432 177.628 154.432 181.739Z" fill="#FCE6BF"/>
<path d="M154.432 251.375C154.432 255.486 151.099 258.818 146.989 258.818C142.878 258.818 139.545 255.486 139.545 251.375C139.545 247.264 142.878 243.932 146.989 243.932C151.099 243.932 154.432 247.264 154.432 251.375Z" fill="#FCE6BF"/>
<path d="M154.432 146.989C154.432 151.099 151.099 154.432 146.989 154.432C142.878 154.432 139.545 151.099 139.545 146.989C139.545 142.878 142.878 139.545 146.989 139.545C151.099 139.545 154.432 142.878 154.432 146.989Z" fill="#FCE6BF"/>
<path d="M154.432 216.625C154.432 220.736 151.099 224.068 146.989 224.068C142.878 224.068 139.545 220.736 139.545 216.625C139.545 212.514 142.878 209.182 146.989 209.182C151.099 209.182 154.432 212.514 154.432 216.625Z" fill="#FCE6BF"/>
<path d="M154.432 286.261C154.432 290.372 151.099 293.704 146.989 293.704C142.878 293.704 139.545 290.372 139.545 286.261C139.545 282.151 142.878 278.818 146.989 278.818C151.099 278.818 154.432 282.151 154.432 286.261Z" fill="#FCE6BF"/>
<path d="M189.318 7.44318C189.318 11.5539 185.986 14.8864 181.875 14.8864C177.764 14.8864 174.432 11.5539 174.432 7.44318C174.432 3.33243 177.764 0 181.875 0C185.986 0 189.318 3.33243 189.318 7.44318Z" fill="#FCE6BF"/>
<path d="M189.318 42.3295C189.318 46.4403 185.986 49.7727 181.875 49.7727C177.764 49.7727 174.432 46.4403 174.432 42.3295C174.432 38.2188 177.764 34.8864 181.875 34.8864C185.986 34.8864 189.318 38.2188 189.318 42.3295Z" fill="#FCE6BF"/>
<path d="M189.318 77.2159C189.318 81.3266 185.986 84.6591 181.875 84.6591C177.764 84.6591 174.432 81.3266 174.432 77.2159C174.432 73.1051 177.764 69.7727 181.875 69.7727C185.986 69.7727 189.318 73.1051 189.318 77.2159Z" fill="#FCE6BF"/>
<path d="M189.318 112.102C189.318 116.213 185.986 119.545 181.875 119.545C177.764 119.545 174.432 116.213 174.432 112.102C174.432 107.991 177.764 104.659 181.875 104.659C185.986 104.659 189.318 107.991 189.318 112.102Z" fill="#FCE6BF"/>
<path d="M189.318 181.739C189.318 185.849 185.986 189.182 181.875 189.182C177.764 189.182 174.432 185.849 174.432 181.739C174.432 177.628 177.764 174.295 181.875 174.295C185.986 174.295 189.318 177.628 189.318 181.739Z" fill="#FCE6BF"/>
<path d="M189.318 251.375C189.318 255.486 185.986 258.818 181.875 258.818C177.764 258.818 174.432 255.486 174.432 251.375C174.432 247.264 177.764 243.932 181.875 243.932C185.986 243.932 189.318 247.264 189.318 251.375Z" fill="#FCE6BF"/>
<path d="M189.318 146.989C189.318 151.099 185.986 154.432 181.875 154.432C177.764 154.432 174.432 151.099 174.432 146.989C174.432 142.878 177.764 139.545 181.875 139.545C185.986 139.545 189.318 142.878 189.318 146.989Z" fill="#FCE6BF"/>
<path d="M189.318 216.625C189.318 220.736 185.986 224.068 181.875 224.068C177.764 224.068 174.432 220.736 174.432 216.625C174.432 212.514 177.764 209.182 181.875 209.182C185.986 209.182 189.318 212.514 189.318 216.625Z" fill="#FCE6BF"/>
<path d="M189.318 286.261C189.318 290.372 185.986 293.704 181.875 293.704C177.764 293.704 174.432 290.372 174.432 286.261C174.432 282.151 177.764 278.818 181.875 278.818C185.986 278.818 189.318 282.151 189.318 286.261Z" fill="#FCE6BF"/>
<path d="M224.204 7.44318C224.204 11.5539 220.872 14.8864 216.761 14.8864C212.651 14.8864 209.318 11.5539 209.318 7.44318C209.318 3.33243 212.651 0 216.761 0C220.872 0 224.204 3.33243 224.204 7.44318Z" fill="#FCE6BF"/>
<path d="M224.204 42.3295C224.204 46.4403 220.872 49.7727 216.761 49.7727C212.651 49.7727 209.318 46.4403 209.318 42.3295C209.318 38.2188 212.651 34.8864 216.761 34.8864C220.872 34.8864 224.204 38.2188 224.204 42.3295Z" fill="#FCE6BF"/>
<path d="M224.204 77.2159C224.204 81.3266 220.872 84.6591 216.761 84.6591C212.651 84.6591 209.318 81.3266 209.318 77.2159C209.318 73.1051 212.651 69.7727 216.761 69.7727C220.872 69.7727 224.204 73.1051 224.204 77.2159Z" fill="#FCE6BF"/>
<path d="M224.204 112.102C224.204 116.213 220.872 119.545 216.761 119.545C212.651 119.545 209.318 116.213 209.318 112.102C209.318 107.991 212.651 104.659 216.761 104.659C220.872 104.659 224.204 107.991 224.204 112.102Z" fill="#FCE6BF"/>
<path d="M224.204 181.739C224.204 185.849 220.872 189.182 216.761 189.182C212.651 189.182 209.318 185.849 209.318 181.739C209.318 177.628 212.651 174.295 216.761 174.295C220.872 174.295 224.204 177.628 224.204 181.739Z" fill="#FCE6BF"/>
<path d="M224.204 251.375C224.204 255.486 220.872 258.818 216.761 258.818C212.651 258.818 209.318 255.486 209.318 251.375C209.318 247.264 212.651 243.932 216.761 243.932C220.872 243.932 224.204 247.264 224.204 251.375Z" fill="#FCE6BF"/>
<path d="M224.204 146.989C224.204 151.099 220.872 154.432 216.761 154.432C212.651 154.432 209.318 151.099 209.318 146.989C209.318 142.878 212.651 139.545 216.761 139.545C220.872 139.545 224.204 142.878 224.204 146.989Z" fill="#FCE6BF"/>
<path d="M224.204 216.625C224.204 220.736 220.872 224.068 216.761 224.068C212.651 224.068 209.318 220.736 209.318 216.625C209.318 212.514 212.651 209.182 216.761 209.182C220.872 209.182 224.204 212.514 224.204 216.625Z" fill="#FCE6BF"/>
<path d="M224.204 286.261C224.204 290.372 220.872 293.704 216.761 293.704C212.651 293.704 209.318 290.372 209.318 286.261C209.318 282.151 212.651 278.818 216.761 278.818C220.872 278.818 224.204 282.151 224.204 286.261Z" fill="#FCE6BF"/>
</svg>
