<svg width="196" height="391" viewBox="0 0 196 391" fill="none" xmlns="http://www.w3.org/2000/svg">
<path d="M-1.70912e-05 391C25.6734 391 51.0954 385.943 74.8146 376.118C98.5338 366.294 120.086 351.893 138.239 333.739C156.393 315.586 170.794 294.034 180.618 270.315C190.443 246.595 195.5 221.173 195.5 195.5C195.5 169.827 190.443 144.405 180.618 120.685C170.794 96.9662 156.393 75.4145 138.239 57.2606C120.086 39.1068 98.5338 24.7063 74.8146 14.8815C51.0954 5.05675 25.6734 -9.6678e-06 -1.52588e-05 -8.54558e-06L-1.78225e-05 58.65C17.9714 58.65 35.7668 62.1897 52.3702 69.0671C68.9736 75.9444 84.0598 86.0247 96.7675 98.7324C109.475 111.44 119.556 126.526 126.433 143.13C133.31 159.733 136.85 177.529 136.85 195.5C136.85 213.471 133.31 231.267 126.433 247.87C119.556 264.474 109.475 279.56 96.7675 292.268C84.0598 304.975 68.9736 315.056 52.3702 321.933C35.7668 328.81 17.9714 332.35 -1.45275e-05 332.35L-1.70912e-05 391Z" fill="#3568D4" fill-opacity="0.05"/>
</svg>
