<svg width="195" height="391" viewBox="0 0 195 391" fill="none" xmlns="http://www.w3.org/2000/svg">
<path d="M195.5 -8.54558e-06C169.827 -7.42336e-06 144.405 5.05676 120.685 14.8816C96.9662 24.7064 75.4145 39.1067 57.2606 57.2606C39.1068 75.4145 24.7063 96.9662 14.8815 120.685C5.05674 144.405 -1.079e-05 169.827 -8.54558e-06 195.5C-6.30113e-06 221.173 5.05675 246.595 14.8816 270.315C24.7063 294.034 39.1068 315.586 57.2606 333.739C75.4145 351.893 96.9662 366.294 120.685 376.118C144.405 385.943 169.827 391 195.5 391L195.5 332.35C177.529 332.35 159.733 328.81 143.13 321.933C126.526 315.056 111.44 304.975 98.7324 292.268C86.0248 279.56 75.9445 264.474 69.0671 247.87C62.1897 231.267 58.65 213.471 58.65 195.5C58.65 177.529 62.1897 159.733 69.0671 143.13C75.9444 126.526 86.0247 111.44 98.7324 98.7324C111.44 86.0247 126.526 75.9445 143.13 69.0671C159.733 62.1898 177.529 58.65 195.5 58.65L195.5 -8.54558e-06Z" fill="#3568D4" fill-opacity="0.05"/>
</svg>
